<svg width="106" height="106" viewBox="0 0 106 106" fill="none" xmlns="http://www.w3.org/2000/svg">
<g clip-path="url(#clip0_978_1098)">
<g clip-path="url(#clip1_978_1098)">
<path d="M18.4013 82.3651C18.0247 71.0107 18.6348 66.7182 22.2906 55.0534C25.1933 45.7951 28.2179 35.1596 29.5 36C30.2579 36.4966 30.6833 36 26.5946 50.7609C25.8368 53.4968 25.3697 55.9749 25.5508 56.2757C25.7939 56.672 31.5993 56.8201 46.5561 56.8201C68.0953 56.8201 68.7292 56.863 68.7292 58.2525C68.7292 59.6467 68.0953 59.6849 45.9317 59.6563C24.6404 59.6229 24.6404 59.6229 23.568 61.2606C20.9656 65.2332 18.5872 64.9372 53.21 64.9372C86.236 64.9372 84.9348 65.0184 84.9348 62.97C84.9348 60.2866 83.8862 59.6802 79.2819 59.7088C75.6785 59.7279 75.0732 59.6085 74.4488 58.7586C73.405 57.3453 74.4393 56.8344 78.3858 56.8296C83.1808 56.8153 83.1379 56.9967 80.5259 48.3305C77.6709 38.8669 77.1085 34.8991 77.4993 26.9968C78.0284 16.1915 81.2218 3.41899 83.5001 2.94628C84.8347 2.67412 84.7727 3.21844 82.4515 12.3765C79.158 25.3686 79.3725 35.1665 83.2046 47.2705C88.5715 64.2066 90.4261 68.6193 90.7216 76.4021C90.998 83.6693 89.6825 96.487 88 96C87.4662 95.8472 87.0225 81.7826 86.8128 76.3728C86.6698 72.5768 86.3075 69.0435 86.012 68.5183C85.2637 67.1813 23.6157 66.7468 22.3001 68.0694C20.8559 69.5114 20.875 86.0894 22.3335 99.793C22.4813 101.159 22.3335 102.247 21.9331 102.777C21.5852 103.24 21.1419 103.618 20.9465 103.613C20.7511 103.613 20.3936 103.021 20.1505 102.3C19.4356 100.146 18.7206 92.0245 18.4013 82.3651Z" fill="#003A77"/>
<path d="M50.3694 92.9735C51.9233 86.623 52.5238 83.1852 52.5334 80.6402C52.5381 76.4384 52.9909 75.3975 54.4161 76.2809C55.2502 76.7965 55.3836 77.3791 55.3836 80.4397C55.3836 83.0372 55.9794 86.4655 57.5666 93.0642C59.864 102.585 59.9212 104.552 57.886 103.306C57.2521 102.919 56.6181 101.114 55.6553 96.9795C53.9061 89.4592 54.03 89.464 52.2808 96.927C51.5706 99.9494 50.7365 102.685 50.4314 103.015C50.1216 103.344 49.6068 103.612 49.2875 103.612C48.9729 103.612 48.6011 103.201 48.4629 102.7C48.3294 102.194 49.1874 97.8199 50.3694 92.9735Z" fill="#003A77"/>
<path d="M24.9705 8.5698C23.9842 4.89615 23.8085 3.72518 24.1799 3.29812C27.3504 -0.347976 31.6615 30.478 29.3415 39.6896C29.1658 40.3876 29.0315 39.6902 28.3846 39.6902C27.4342 39.6902 27.4342 39.6902 27.5341 30.3912C27.6459 20.105 27.3104 17.2488 24.9705 8.5698Z" fill="#003A77"/>
<path d="M87.2646 88.8542C87.5927 87.7677 89.4926 87.6976 89.9212 88.7591C90.3287 89.7605 89.0533 101.962 88.4236 103.124C88.159 103.604 87.598 104 87.1694 104C86.746 104 86.2486 103.655 86.0633 103.234C85.7405 102.498 86.7301 90.6217 87.2646 88.8542Z" fill="#003A77"/>
<path d="M8.31584 65.0693C6.27584 65.394 5.37023 64.4152 6.47603 63.083C7.29107 62.0994 10.5656 61.6219 11.4473 62.3572C11.8811 62.7154 12.7104 62.8156 13.616 62.6151C16.4472 61.9944 17.4196 63.9377 14.8219 65.0263C13.9115 65.4083 12.7342 65.7187 12.2004 65.7187C11.6666 65.7187 10.9898 65.5038 10.6895 65.246C10.3892 64.9881 9.32154 64.907 8.31584 65.0693Z" fill="#003A77"/>
<path d="M93.8861 62.7189C94.8918 62.9099 95.6592 62.824 95.8547 62.5088C96.6888 61.1576 101.565 62.7571 101.264 64.2851C101.15 64.8819 100.55 65.1206 98.9718 65.1923C97.7993 65.2496 96.1406 65.4119 95.2875 65.5504C94.358 65.7079 93.1664 65.5169 92.3085 65.0777C89.911 63.8506 91.0263 62.1842 93.8861 62.7189Z" fill="#003A77"/>
<path d="M91.6778 54.6419C92.6024 54.2551 93.7845 53.5103 94.2993 52.9946C95.6481 51.6433 98.875 51.6768 99.3087 53.0471C99.5661 53.8636 99.3421 54.1405 98.017 54.5989C97.1305 54.9045 95.7959 55.6351 95.0476 56.2271C94.1658 56.9195 93.0314 57.3014 91.8446 57.3014C90.3003 57.3014 90 57.1391 90 56.3226C90 55.6542 90.5338 55.1194 91.6778 54.6419Z" fill="#003A77"/>
<path d="M11.1328 56.7417C10.7992 56.3359 9.69816 55.7104 8.68769 55.3522C7.35311 54.8795 6.89554 54.4737 7.01946 53.8625C7.24825 52.7261 11.5427 52.707 12.3673 53.8386C12.6676 54.2493 13.7114 54.9225 14.6838 55.3331C15.8611 55.825 16.4568 56.3836 16.4568 56.9948C16.4568 57.5009 16.1375 58.05 15.7419 58.2123C15.3511 58.3747 14.2882 58.2792 13.3873 57.9927C12.4865 57.711 11.4712 57.1476 11.1328 56.7417Z" fill="#003A77"/>
<path d="M50.072 45.7426C50.6106 45.2317 50.9585 45.3081 52.0548 46.1962C52.7888 46.7883 53.642 47.2706 53.9518 47.2706C54.2616 47.2706 55.1148 46.7883 55.8488 46.1962C56.9451 45.3081 57.293 45.2317 57.8316 45.7426C58.6705 46.5448 57.7697 48.6409 56.2111 49.5051C55.6248 49.8346 54.5524 50.1115 53.8327 50.1163C53.1129 50.1259 52.0834 49.8346 51.5496 49.4717C50.0386 48.4404 49.2712 46.5066 50.072 45.7426Z" fill="#003A77"/>
<path d="M95.2703 74.9384C94.4839 75.2392 91.462 73.4534 91.0807 72.4555C90.5945 71.1902 92.4058 70.5026 93.8071 71.4242C94.4744 71.8634 95.3323 72.0974 95.7184 71.9542C97.2531 71.3621 100.556 73.907 100.032 75.2726C99.8699 75.7024 99.3265 76.0509 98.8308 76.0509C98.3351 76.0509 97.4772 75.7453 96.929 75.3681C96.3761 74.9909 95.6326 74.7999 95.2703 74.9384Z" fill="#003A77"/>
<path d="M12.1505 71.9919C12.6176 72.1399 13.5709 71.8916 14.262 71.4332C15.5442 70.5929 17.3363 71.0417 17.3363 72.2067C17.3363 72.9468 13.6185 75.2148 12.8798 74.9331C12.5128 74.7899 11.6262 74.9809 10.9065 75.3533C10.1868 75.7257 9.30499 76.0313 8.94275 76.0313C8.57574 76.0313 8.16583 75.6016 8.02284 75.0764C7.7035 73.8922 10.8159 71.5669 12.1505 71.9919Z" fill="#003A77"/>
</g>
</g>
<defs>
<clipPath id="clip0_978_1098">
<rect width="106" height="106" fill="white"/>
</clipPath>
<clipPath id="clip1_978_1098">
<rect width="102" height="106" fill="white" transform="translate(2)"/>
</clipPath>
</defs>
</svg>
