<svg width="83" height="123" viewBox="0 0 83 123" fill="none" xmlns="http://www.w3.org/2000/svg">
<path d="M36.5485 88.899C36.5485 86.7763 36.3294 85.1979 35.1934 79.0828C33.1992 68.3569 33.3867 64.7704 36.1984 59.9901C37.6687 57.4925 37.7093 57.5713 34.8366 57.3826C29.4186 57.0268 25.4098 55.1309 23.6866 52.1128C21.2972 47.927 22.2457 42.6882 25.9292 39.7273L27.3385 38.5931C24.2128 33.8892 23.2598 30.1618 23.5579 26.7736C23.7047 25.0973 23.7047 25.0973 21.9386 24.8036C19.5062 24.3977 19.6101 24.3643 19.6101 25.5248C19.6101 26.0835 19.3052 27.4851 18.9326 28.6408C18.1037 31.2077 18.106 31.0597 18.9258 33.3137C19.9579 36.1528 20.0166 37.4016 19.26 40.4198C18.6232 42.9604 18.6232 42.9604 19.5649 44.6605C22.2118 49.4408 21.9611 55.0545 18.9213 59.097C17.5685 60.8951 17.5685 60.895 18.4673 62.8196C20.3147 66.7738 20.1928 70.1167 18.2031 70.1167C17.0422 70.1167 16.7102 69.6463 16.3602 67.5092C15.8791 64.5794 14.8335 62.8148 13.6252 62.8888C9.90327 63.1157 8.89148 63.0321 7.30153 62.3564C1.34374 59.8325 -1.55612 52.1868 0.894304 45.4771C1.6012 43.543 1.6012 43.543 0.905597 41.6065C-0.275574 38.3257 -0.2959 36.2841 0.813 32.798C1.40471 30.9355 1.40471 30.9355 0.657167 28.0845C-0.176202 24.9183 -0.17846 23.5047 0.643616 20.582C1.05014 19.1446 1.04788 19.1279 0.494559 16.869C-2.41207 5.04232 9.56676 -4.47301 18.8309 2.30592C20.1747 3.2873 20.1747 3.2873 22.3248 3.13209C25.2607 2.91958 27.6999 3.60487 29.9222 5.26677C31.4625 6.41769 31.4625 6.41769 33.1947 5.99505C35.4351 5.44825 36.9528 5.62733 39.5658 6.7472C41.569 7.60442 41.569 7.60442 43.0664 6.86659C45.3971 5.72045 46.6573 5.51988 49.2591 5.88521C51.4678 6.19562 51.4678 6.19562 53.051 5.08291C55.4246 3.40908 57.4889 2.86466 60.2374 3.18224C62.3603 3.42818 62.3603 3.42818 63.9638 2.25577C73.289 -4.56375 85.3514 5.14977 82.3906 17.0911C81.8779 19.1589 81.8779 19.1589 82.3612 21.0715C83.0681 23.8533 83.0116 25.988 82.1692 28.4952C81.7966 29.6007 81.4917 30.6466 81.4917 30.8161C81.4917 30.988 81.7966 32.0506 82.1692 33.18C83.1652 36.1982 83.1313 38.414 82.0473 41.4322C81.2433 43.6672 81.2433 43.6672 81.9321 45.9499C83.1788 50.0784 82.5803 54.7011 80.3692 58.013C79.5562 59.2308 79.4026 59.6797 79.1045 61.7141C77.641 71.6329 68.9573 77.4687 59.8715 74.6368C57.5205 73.9037 57.5205 73.9037 55.5601 74.5436C53.8776 75.0928 53.3559 75.1621 51.8789 75.0355C50.1602 74.8875 50.1602 74.8875 50.0518 77.3373C49.9592 79.3932 49.7695 80.3627 48.8774 83.3689C48.0395 86.1889 47.773 87.495 47.6285 89.5103C47.3845 92.8699 46.7454 94.1378 44.8348 95.0571C43.8614 95.5251 43.2042 95.666 41.9801 95.666C40.6002 95.666 40.214 95.5633 39.0893 94.89C37.147 93.7295 36.5485 92.3183 36.5485 88.899ZM44.3221 88.7414C44.4147 87.3183 44.7918 85.5036 45.5823 82.6764C46.8538 78.1373 46.9916 76.4634 46.3434 73.4858C45.6704 70.3793 46.5241 69.6702 49.5504 70.8187C52.0505 71.769 52.8907 71.7499 55.3298 70.6778C57.315 69.8039 57.315 69.8039 59.8512 70.7375C67.8055 73.6602 74.7818 69.281 75.9201 60.6539C76.2205 58.3616 76.304 58.13 77.4965 56.1959C78.4812 54.5985 78.8312 53.7699 79.1068 52.385C79.6127 49.8491 79.581 49.5316 78.5173 46.3964C77.5597 43.5717 77.5597 43.5717 78.5354 41.0907C79.834 37.7813 79.825 35.8137 78.497 33.1323C77.4468 31.0095 77.4491 30.8471 78.5557 28.211C79.7098 25.4651 79.7572 24.0372 78.7974 20.9951C78.4337 19.8418 78.174 18.7912 78.2215 18.6599C79.3575 15.5319 79.502 14.8084 79.3936 12.7334C78.9826 4.77967 70.3282 0.741918 65.014 6.0237C63.476 7.55427 63.4241 7.56383 60.8223 6.97404C58.0219 6.34128 56.2332 6.84271 54.1983 8.83413C52.4954 10.5008 52.2357 10.5796 50.5193 9.95639C47.834 8.97978 45.4558 9.30691 43.0393 10.9879C41.4742 12.0744 41.4674 12.0744 39.4461 10.7921C36.9392 9.20424 35.3989 8.96307 33.0727 9.79163C30.6042 10.6703 30.4507 10.6417 28.7794 9.02038C26.5187 6.826 24.8091 6.32695 21.6947 6.94778C19.3707 7.41339 19.3707 7.41339 17.7627 6.04519C10.486 -0.141563 1.14499 7.06717 4.03581 16.6398C4.72464 18.9201 4.72464 18.9201 4.02 21.1766C3.10759 24.0921 3.19341 25.3791 4.51009 28.5716C5.44509 30.8424 5.44509 30.8424 4.4604 33.0487C3.0579 36.1838 3.06016 37.7646 4.47169 41.1504C5.46993 43.543 5.46993 43.543 4.46718 45.8401C2.56782 50.1787 3.15727 54.288 6.11359 57.3205C13.038 64.4242 22.2118 53.6505 16.0824 45.6156C14.5241 43.574 14.4653 43.2565 15.2874 41.3104C16.717 37.9245 16.6719 36.0501 15.0864 32.9651C13.9866 30.8256 13.982 31.074 15.188 28.6695C16.848 25.3648 16.8254 23.4044 15.1113 21.3079C14.034 19.9923 13.8781 18.8652 14.6641 18.0677C15.4184 17.3012 16.0327 17.4827 17.7107 18.9631C20.2357 21.1933 23.0904 21.7879 26.1009 20.7062C28.1064 19.9875 28.3842 20.0448 30.0938 21.5419C33.005 24.0969 36.1375 24.3667 39.4506 22.349C41.3567 21.1885 41.4448 21.1885 43.4232 22.3323C47.1655 24.5004 50.2212 24.0634 53.523 20.8925C54.3496 20.0997 54.3496 20.0997 56.9491 20.7826C60.5897 21.7377 62.1322 21.4154 64.8605 19.1231C66.805 17.4875 67.4328 17.2869 68.1668 18.0629C68.824 18.7578 68.7405 19.88 67.95 21.0405C66.3601 23.3734 66.1342 27.0911 67.3899 30.2406C68.5869 33.2349 68.5869 33.2922 67.5186 35.68C66.2313 38.5597 66.211 40.1356 67.426 43.4069C68.2797 45.7087 68.2797 45.7087 67.0805 48.192C65.8813 50.6753 65.8813 50.6753 65.9355 53.1347C66.001 56.2508 65.8158 56.5063 63.4963 56.5063C61.3531 56.5087 60.0319 57.1176 58.1958 58.949C56.2783 60.8616 55.8402 60.8903 54.2367 59.1973C47.441 52.0268 37.226 58.1419 37.226 69.3765C37.226 70.8903 37.5558 73.216 38.4795 78.2352C39.3264 82.8293 39.7894 86.0098 39.9046 88.0251C40.0536 90.6349 40.1372 91.0767 40.5708 91.5471C40.9028 91.9076 41.3432 92.0891 41.9123 92.0986C43.4819 92.1249 44.164 91.1746 44.3221 88.7414ZM54.1147 55.1858C54.5213 55.2694 55.1062 55.5464 55.4133 55.8019C55.926 56.2317 56.0073 56.2365 56.4229 55.8902C56.7842 55.587 56.8746 55.2264 56.8746 54.0899C56.8746 49.3764 54.0312 47.8052 47.6149 48.9776C38.7934 50.587 29.3214 49.7274 29.3214 47.3157C29.3214 45.6729 30.1187 45.3959 33.5131 45.8615C44.0601 47.3062 54.8826 45.021 57.3488 40.8281C58.4623 38.9346 58.1777 35.6442 56.7458 33.8462C55.0091 31.6638 53.252 31.6184 46.7725 33.5883C39.3716 35.8352 36.4017 35.8018 33.687 33.4403C32.0293 31.998 31.5799 30.9641 31.5799 28.5907C31.5799 26.6804 31.5799 26.6804 30.541 26.1957C29.9696 25.9283 29.003 25.3218 28.391 24.849C27.2821 23.987 27.2821 23.987 27.0336 25.3815C26.1438 30.3887 28.1019 35.2574 31.8645 37.404C35.7761 39.6342 39.6923 39.67 47.6149 37.552C53.191 36.0597 53.6043 36.0549 53.8708 37.4661C54.1305 38.8391 53.6947 39.2617 51.0929 40.1643C45.0651 42.2512 40.4443 42.7526 34.7553 41.936C31.0514 41.4035 30.8572 41.3988 29.5405 41.7856C26.792 42.5927 25.0485 45.5655 25.6673 48.395C26.7604 53.4022 32.8062 54.842 45.6952 53.1706C51.9218 52.3635 52.3622 52.4208 53.0352 54.1591C53.3017 54.8468 53.5321 55.0665 54.1147 55.1858ZM57.2743 47.1104C58.5549 48.235 59.736 50.3458 60.0251 52.0292C60.1561 52.7837 60.2871 53.3998 60.3187 53.395C60.3503 53.3902 60.8381 53.278 61.405 53.1467C62.4326 52.9055 62.4326 52.9055 62.7127 50.8544C62.925 49.3 63.196 48.4212 63.8306 47.2059C64.6662 45.6084 64.6662 45.6084 63.9887 43.9537C62.9521 41.4226 62.9814 37.5855 64.0542 35.0592C64.7972 33.3113 64.7972 33.3113 64.2439 32.0745C63.4557 30.3051 63.1079 28.1489 63.2773 26.0477C63.3541 25.0711 63.3947 24.2712 63.3653 24.2712C63.336 24.2712 62.6517 24.4335 61.8432 24.6293C59.9664 25.0878 58.7197 25.0639 56.8113 24.5386C55.2824 24.116 55.2824 24.116 53.6495 25.2812C50.3634 27.6308 46.5963 27.9269 43.0167 26.1193C41.4697 25.3385 41.4697 25.3385 39.9 26.1623C38.816 26.7306 37.7726 27.0649 36.5214 27.2392C34.7124 27.4947 34.7124 27.4947 34.8614 28.3304C35.5141 32.01 38.5969 32.4637 46.2598 30.0066C51.8156 28.2253 53.4846 28.0749 55.9892 29.1351C62.1819 31.7545 63.2208 41.5468 57.7102 45.3315C56.328 46.2794 56.328 46.2794 57.2743 47.1104Z" fill="#053870"/>
<path d="M41.7655 99.6558L31.2324 110.189C30.8383 110.583 30.3368 110.78 29.7277 110.78C29.1186 110.78 28.6171 110.583 28.223 110.189C27.8289 109.795 27.6318 109.293 27.6318 108.684C27.6318 108.075 27.8289 107.574 28.223 107.179L38.756 96.6464L28.223 86.1133C27.8289 85.7192 27.6318 85.2176 27.6318 84.6086C27.6318 83.9995 27.8289 83.4979 28.223 83.1038C28.6171 82.7097 29.1186 82.5127 29.7277 82.5127C30.3368 82.5127 30.8383 82.7097 31.2324 83.1038L41.7655 93.6369L52.2986 83.1038C52.6927 82.7097 53.1942 82.5127 53.8033 82.5127C54.4123 82.5127 54.9139 82.7097 55.308 83.1038C55.7021 83.4979 55.8992 83.9995 55.8992 84.6086C55.8992 85.2176 55.7021 85.7192 55.308 86.1133L44.7749 96.6464L55.308 107.179C55.7021 107.574 55.8992 108.075 55.8992 108.684C55.8992 109.293 55.7021 109.795 55.308 110.189C54.9139 110.583 54.4123 110.78 53.8033 110.78C53.1942 110.78 52.6927 110.583 52.2986 110.189L41.7655 99.6558Z" fill="#053870"/>
</svg>
