<svg width="99" height="131" viewBox="0 0 99 131" fill="none" xmlns="http://www.w3.org/2000/svg">
<path d="M40.1196 121.087C40.1196 118.827 40.9712 116.355 44.0588 109.674C48.8852 99.2171 48.6812 99.2337 53.3241 108.886C57.4545 117.477 58.1862 120.164 57.3576 123.679C56.7839 126.121 54.9686 128.45 52.7861 129.547C51.9193 129.985 50.6087 130.41 49.8719 130.496C49.1351 130.579 48.0897 130.537 47.5467 130.399C43.2837 129.326 40.1196 125.359 40.1196 121.087ZM45.9582 114.791C43.2888 120.582 43.3729 123.133 46.3024 125.312C47.3044 126.057 47.7532 126.213 48.9005 126.213C49.9229 126.213 50.5858 126.027 51.4323 125.497C54.7417 123.432 54.655 120.724 51.0447 113.242C48.6455 108.268 49.0152 108.155 45.9582 114.791Z" fill="#053870"/>
<path d="M42.8623 92.5202C42.8623 90.4169 42.6323 88.8531 41.4396 82.7941C39.3458 72.1667 39.5426 68.6132 42.4948 63.8767C44.0384 61.402 44.0811 61.4801 41.0649 61.2932C35.3764 60.9407 31.1675 59.0622 29.3583 56.0717C26.8496 51.9244 27.8455 46.7337 31.7129 43.8L33.1925 42.6762C29.9108 38.0155 28.9102 34.3224 29.2232 30.9652C29.3773 29.3044 29.3773 29.3044 27.523 29.0134C24.9692 28.6112 25.0783 28.5781 25.0783 29.7279C25.0783 30.2815 24.7582 31.6702 24.367 32.8153C23.4967 35.3586 23.4991 35.2119 24.3598 37.4453C25.4435 40.2583 25.5051 41.4957 24.7108 44.4861C24.0421 47.0034 24.0421 47.0034 25.0309 48.6879C27.8099 53.4243 27.5467 58.9865 24.3551 62.9919C22.9348 64.7734 22.9348 64.7734 23.8785 66.6803C25.8181 70.5981 25.6901 73.9103 23.6011 73.9103C22.3823 73.9103 22.0337 73.4442 21.6662 71.3268C21.1611 68.4239 20.0632 66.6755 18.7946 66.7489C14.8869 66.9736 13.8246 66.8908 12.1553 66.2213C5.90008 63.7206 2.85546 56.1451 5.42821 49.497C6.17039 47.5807 6.17039 47.5807 5.44006 45.6619C4.19993 42.4113 4.17859 40.3884 5.34284 36.9343C5.9641 35.0889 5.9641 35.0889 5.17923 32.2641C4.30426 29.1269 4.30189 27.7264 5.165 24.8305C5.59182 23.4063 5.58945 23.3897 5.00851 21.1516C1.95678 9.43352 14.5336 0.00556517 24.2603 6.72224C25.6711 7.69461 25.6711 7.69461 27.9285 7.54083C31.011 7.33027 33.5719 8.00927 35.9052 9.65591C37.5224 10.7963 37.5224 10.7963 39.3411 10.3775C41.6933 9.83572 43.2867 10.0132 46.0302 11.1227C48.1335 11.9721 48.1335 11.9721 49.7056 11.241C52.1526 10.1054 53.4758 9.90669 56.2074 10.2687C58.5264 10.5762 58.5264 10.5762 60.1886 9.47374C62.6808 7.81527 64.848 7.27586 67.7338 7.59052C69.9627 7.8342 69.9627 7.8342 71.6462 6.67256C81.4369 -0.0843382 94.1015 9.53998 90.9928 21.3717C90.4546 23.4205 90.4546 23.4205 90.962 25.3155C91.7042 28.0718 91.6449 30.1869 90.7605 32.671C90.3692 33.7664 90.0491 34.8026 90.0491 34.9706C90.0491 35.141 90.3692 36.1938 90.7605 37.3128C91.8062 40.3033 91.7706 42.4988 90.6324 45.4892C89.7883 47.7037 89.7883 47.7037 90.5115 49.9655C91.8204 54.056 91.192 58.6363 88.8706 61.9178C88.017 63.1244 87.8557 63.5691 87.5427 65.5849C86.0062 75.4127 76.889 81.1948 67.3496 78.3889C64.8812 77.6626 64.8812 77.6626 62.823 78.2966C61.0565 78.8408 60.5087 78.9094 58.958 78.784C57.1535 78.6373 57.1535 78.6373 57.0397 81.0647C56.9425 83.1017 56.7433 84.0622 55.8067 87.0409C54.9269 89.8349 54.6471 91.1291 54.4954 93.1258C54.2393 96.4546 53.5682 97.7109 51.5622 98.6217C50.5402 99.0854 49.8502 99.225 48.565 99.225C47.1162 99.225 46.7107 99.1233 45.5299 98.4561C43.4907 97.3063 42.8623 95.9081 42.8623 92.5202ZM51.0239 92.364C51.1212 90.954 51.5172 89.1559 52.3471 86.3548C53.6821 81.8573 53.8267 80.1988 53.1462 77.2486C52.4396 74.1706 53.3359 73.4679 56.5133 74.6059C59.1382 75.5475 60.0203 75.5286 62.5812 74.4663C64.6654 73.6004 64.6654 73.6004 67.3283 74.5255C75.6796 77.4213 83.0043 73.0823 84.1993 64.5344C84.5147 62.2632 84.6025 62.0337 85.8544 60.1174C86.8883 58.5346 87.2558 57.7136 87.5451 56.3414C88.0763 53.8289 88.0431 53.5142 86.9262 50.4079C85.9208 47.6091 85.9208 47.6091 86.9452 45.1509C88.3086 41.8718 88.2992 39.9224 86.9049 37.2655C85.8023 35.1623 85.8047 35.0014 86.9665 32.3895C88.1782 29.6687 88.228 28.2539 87.2203 25.2398C86.8385 24.0971 86.5658 23.0561 86.6156 22.926C87.8083 19.8267 87.9601 19.1099 87.8463 17.054C87.4147 9.17328 78.3283 5.1726 72.7488 10.4059C71.1341 11.9224 71.0795 11.9319 68.3479 11.3475C65.4076 10.7205 63.5296 11.2174 61.3932 13.1905C59.6053 14.8419 59.3326 14.92 57.5305 14.3025C54.7112 13.3348 52.2143 13.6589 49.6771 15.3245C48.0339 16.401 48.0268 16.401 45.9045 15.1305C43.2725 13.5572 41.6553 13.3183 39.213 14.1392C36.6213 15.0099 36.4601 14.9815 34.7054 13.375C32.3318 11.2008 30.5368 10.7064 27.2669 11.3215C24.827 11.7828 24.827 11.7828 23.1387 10.4272C15.4987 4.29724 5.69141 11.4398 8.72654 20.9245C9.44976 23.1839 9.44976 23.1839 8.70994 25.4196C7.75198 28.3084 7.84208 29.5836 9.22449 32.7467C10.2062 34.9966 10.2062 34.9966 9.17233 37.1827C7.69981 40.2891 7.70218 41.8553 9.18418 45.2101C10.2323 47.5807 10.2323 47.5807 9.17944 49.8566C7.18526 54.1554 7.80415 58.227 10.908 61.2317C18.1781 68.2701 27.8099 57.5954 21.3745 49.6342C19.7384 47.6114 19.6767 47.2968 20.5398 45.3686C22.0408 42.0138 21.9934 40.1566 20.3288 37.0999C19.174 34.9801 19.1693 35.2261 20.4355 32.8437C22.1783 29.5694 22.1546 27.627 20.3549 25.5498C19.2238 24.2462 19.0602 23.1295 19.8854 22.3393C20.6774 21.5798 21.3223 21.7597 23.0841 23.2265C25.7351 25.4362 28.7323 26.0253 31.8931 24.9536C33.9988 24.2414 34.2904 24.2982 36.0854 25.7816C39.1419 28.3131 42.4307 28.5804 45.9093 26.5813C47.9106 25.4315 48.003 25.4315 50.0802 26.5647C54.0093 28.7129 57.2175 28.28 60.6842 25.1381C61.5521 24.3526 61.5521 24.3526 64.2813 25.0293C68.1037 25.9756 69.7232 25.6562 72.5876 23.385C74.6292 21.7644 75.2884 21.5657 76.059 22.3346C76.7491 23.023 76.6613 24.135 75.8314 25.2848C74.1621 27.5962 73.925 31.2799 75.2433 34.4004C76.5001 37.3672 76.5001 37.424 75.3785 39.7899C74.0269 42.6431 74.0056 44.2046 75.2813 47.4458C76.1776 49.7265 76.1776 49.7265 74.9185 52.187C73.6594 54.6475 73.6594 54.6475 73.7163 57.0843C73.7851 60.1718 73.5906 60.4249 71.1554 60.4249C68.9051 60.4273 67.518 61.0306 65.5902 62.8452C63.5771 64.7403 63.1171 64.7686 61.4335 63.0912C54.2986 55.9866 43.5737 62.0455 43.5737 73.1769C43.5737 74.6769 43.9198 76.9812 44.8897 81.9543C45.7789 86.5062 46.265 89.6575 46.3859 91.6543C46.5424 94.2402 46.6301 94.6779 47.0854 95.1439C47.434 95.5012 47.8963 95.681 48.4939 95.6904C50.1419 95.7165 50.858 94.7748 51.0239 92.364ZM61.3055 59.1166C61.7323 59.1994 62.3464 59.4738 62.6689 59.727C63.2072 60.1528 63.2925 60.1576 63.7288 59.8145C64.1082 59.5141 64.2031 59.1568 64.2031 58.0307C64.2031 53.3605 61.2177 51.8037 54.4812 52.9654C45.2193 54.56 35.2745 53.7082 35.2745 51.3187C35.2745 49.691 36.1115 49.4166 39.6754 49.8779C50.7489 51.3093 62.1117 49.0451 64.701 44.8907C65.87 43.0146 65.5712 39.7544 64.0679 37.9729C62.2444 35.8105 60.3997 35.7656 53.5967 37.7174C45.8263 39.9437 42.7082 39.9105 39.858 37.5707C38.1175 36.1417 37.6457 35.1173 37.6457 32.7656C37.6457 30.8729 37.6457 30.873 36.5549 30.3927C35.955 30.1277 34.9401 29.5268 34.2975 29.0583C33.1333 28.2043 33.1333 28.2043 32.8724 29.5859C31.9382 34.5471 33.994 39.3711 37.9444 41.498C42.0513 43.7077 46.163 43.7432 54.4812 41.6447C60.3356 40.1661 60.7696 40.1613 61.0494 41.5595C61.3221 42.9199 60.8644 43.3387 58.1328 44.233C51.8041 46.3007 46.9526 46.7976 40.9796 45.9884C37.0908 45.4608 36.8869 45.4561 35.5045 45.8394C32.6187 46.639 30.7882 49.5845 31.4379 52.3881C32.5855 57.3493 38.9332 58.7759 52.4656 57.1198C59.003 56.3202 59.4654 56.3769 60.172 58.0993C60.4518 58.7806 60.6937 58.9983 61.3055 59.1166ZM64.6228 51.1153C65.9672 52.2296 67.2074 54.321 67.5109 55.9889C67.6484 56.7365 67.7859 57.3469 67.8191 57.3422C67.8523 57.3375 68.3645 57.2263 68.9597 57.0962C70.0386 56.8572 70.0386 56.8572 70.3326 54.8249C70.5555 53.2848 70.84 52.4141 71.5063 51.2099C72.3837 49.6271 72.3837 49.6271 71.6723 47.9876C70.5839 45.4798 70.6148 41.6778 71.7411 39.1748C72.5212 37.4429 72.5212 37.4429 71.9403 36.2174C71.1127 34.4643 70.7476 32.328 70.9254 30.246C71.006 29.2784 71.0487 28.4858 71.0179 28.4858C70.987 28.4858 70.2686 28.6467 69.4197 28.8407C67.4492 29.2949 66.1403 29.2713 64.1367 28.7508C62.5314 28.332 62.5314 28.332 60.817 29.4866C57.3669 31.8146 53.4117 32.1079 49.6534 30.317C48.0291 29.5433 48.0291 29.5433 46.3811 30.3596C45.243 30.9226 44.1475 31.2539 42.8338 31.4266C40.9345 31.6797 40.9345 31.6797 41.091 32.5078C41.7763 36.1536 45.013 36.6031 53.0584 34.1686C58.8916 32.4037 60.6439 32.2546 63.2735 33.3051C69.7754 35.9004 70.8661 45.6028 65.0804 49.3527C63.6292 50.2919 63.6292 50.2919 64.6228 51.1153Z" fill="#053870"/>
</svg>
