<svg width="101" height="132" viewBox="0 0 101 132" fill="none" xmlns="http://www.w3.org/2000/svg">
<g clip-path="url(#clip0_106_267)">
<path d="M44.0598 79.7738C44.0598 74.0744 42.6757 72.1717 36.6031 69.5317C23.5289 63.8544 21.8144 62.967 18.0741 59.9518C9.07532 52.7072 5.9193 42.0148 10.0715 32.8366C11.9296 28.7309 11.9105 28.5631 9.07532 24.7312C3.55348 17.2703 0.560279 2.64877 4.5544 2.64877C6.06776 2.64877 6.05339 2.61346 7.61464 10.3127C8.76882 16.0209 9.11842 16.9966 11.173 20.2635C14.3817 25.3669 14.5253 25.3978 20.8182 22.2678C35.4154 15.01 65.3378 14.9835 79.4992 22.2148C85.8065 25.4331 86.0603 25.3845 89.2546 20.471C91.3571 17.2438 91.7067 16.3167 92.7268 11.2001C94.3982 2.84744 94.379 2.89158 95.878 2.72824C99.8386 2.30443 97.4105 15.425 91.9653 23.8394C88.6177 29.0179 88.6991 28.1349 90.9883 34.4347C92.7124 39.1938 92.2766 45.9086 89.9251 50.6455C86.1226 58.3139 79.6573 63.2981 67.1337 68.2073C57.7279 71.8891 56.8324 72.8251 56.6025 79.1513C56.4253 84.0693 55.999 85.2039 54.3372 85.2039C52.4024 85.2039 51.9954 83.5131 52.5988 77.9108C53.3267 71.1033 54.5863 69.3816 60.8217 66.6709C75.5913 60.2431 76.597 59.7045 80.7109 55.9211C92.1712 45.3964 90.3992 31.755 76.7168 25.1373C64.6578 19.3055 37.1108 19.2834 24.185 25.0932C14.2236 29.5697 10.0667 38.5801 13.6968 47.8201C16.3548 54.5879 23.7013 60.2873 35.4777 64.7152C45.8557 68.6178 48.0683 71.3638 47.8001 80.0122C47.6804 83.9457 47.5079 84.9037 46.8566 85.2348C46.4208 85.46 45.827 85.6454 45.5396 85.6454C45.2523 85.6454 44.8021 85.1024 44.5387 84.4357C44.2753 83.7735 44.0598 81.6721 44.0598 79.7738Z" fill="#053870"/>
<path d="M36.0429 111.891C37.3359 107.366 48.4083 91.3845 50.2474 91.3845C52.0002 91.3845 63.0295 107.017 64.4471 111.511C66.7075 118.676 63.3791 125.528 56.1907 128.534C53.7961 129.536 52.4887 129.793 49.8163 129.793C46.7226 129.793 46.1766 129.642 42.9823 127.916C36.7373 124.543 34.1416 118.548 36.0429 111.891ZM60.4434 112.677C59.2557 109.472 51.0232 97.4195 50.1851 97.649C48.9543 97.989 40.8272 110.478 39.9508 113.374C38.8732 116.95 39.7544 120.085 42.5608 122.672C43.5378 123.572 45.2475 124.649 46.3538 125.064C47.6708 125.559 49.2177 125.757 50.8125 125.643C58.0201 125.122 62.7182 118.804 60.4434 112.677Z" fill="#053870"/>
</g>
<defs>
<clipPath id="clip0_106_267">
<rect width="100.114" height="131.399" fill="white" transform="scale(1.00457)"/>
</clipPath>
</defs>
</svg>
