<svg width="323" height="705" viewBox="0 0 323 705" fill="none" xmlns="http://www.w3.org/2000/svg">
<g clip-path="url(#clip0_976_1080)">
<path d="M55.5024 587.666C56.2879 568.606 59.1939 554.96 69.0311 524.108C79.0549 492.664 79.5262 496.401 64.0831 484.322C39.0677 464.74 38.41 461.131 46.912 388.836C54.2065 326.856 56.5824 312.558 62.0803 297.758C68.1181 281.509 68.1868 283.165 61.0298 273.631C45.5376 252.974 46.4211 232.08 63.9063 205.911C77.7885 185.136 80.8123 177.553 87.1348 147.657C92.0437 124.496 92.6622 122.425 98.1601 110.988C123.951 57.3582 182.768 34.8672 229.579 60.7304C243.549 68.441 270.381 95.4085 276.193 107.556C285.215 126.458 284.764 149.56 275.005 167.555C269.841 177.09 269.841 177.09 271.991 184.091C276.311 198.131 274.288 206.089 263.705 216.688C260.19 220.218 253.092 228.856 247.928 235.886C232.799 256.513 222.991 260.398 202.571 253.891C189.307 249.651 188.669 250.41 192.998 265.121C196.729 277.831 203.169 286.074 222.451 302.836C258.364 334.063 263.999 355.134 245.68 389.714C238.159 403.913 237.983 400.274 248.664 451.468C259.12 501.548 258.963 501.015 264.746 505.235C270.999 509.801 271.647 513.755 267.161 519.976C262.478 526.474 263.656 531.946 271.971 542.309C282.084 554.921 281.2 563.292 269.35 567.216C261.8 569.711 261.732 571.456 267.367 615.008C272.079 651.471 271.903 653.857 264.117 657.525C260.279 659.339 256.499 659.409 162.583 659.409C65.0255 659.409 65.0255 659.408 62.581 656.5C57.4463 650.396 54.2065 618.913 55.5024 587.666ZM208.697 542.053C227.007 554.95 236.883 559.791 250.108 562.345C254.143 563.124 259.11 563.745 261.133 563.726C263.155 563.696 266.493 563.075 268.545 562.345C278.765 558.687 275.624 551.716 256.057 534.648C237.688 518.616 237.315 515.766 253.73 517.028C274.033 518.586 266.11 506.616 244.669 503.332C237.462 502.238 235.931 502.336 225.721 504.516C214.597 506.892 214.597 506.892 209.04 504.703C197.652 500.207 143.832 460.046 126.219 442.909C114.83 431.817 114.349 436.944 132.424 375.772C149.565 317.725 151.028 310.675 148.642 297.67C146.198 284.329 138.059 276.234 124.579 273.739C103.923 269.913 84.2976 288.253 76.7969 318.396C73.5865 331.273 63.062 427.163 63.062 443.511C63.062 463.961 73.1447 471.583 151.264 510.156C188.826 528.702 193.097 531.079 208.697 542.053ZM122.066 252.185C131.648 252.185 143.351 257.135 159.452 268C167.453 273.404 174.227 277.683 174.502 277.506C174.787 277.338 174.129 273.68 173.049 269.371C168.886 252.776 170.791 236.487 177.604 230.483C182.405 226.243 186.047 226.726 199.91 233.431C216.129 241.27 227.154 238.834 232.455 226.233C233.565 223.59 236.127 220.06 238.228 218.295C241.556 215.485 242.047 214.499 242.479 209.737C243.098 203.002 243.981 201.898 248.753 201.898C254.722 201.898 255.38 199.295 252.1 188.666C248.831 178.046 249.185 174.832 255.262 159.499C260.328 146.701 261.732 131.773 258.423 125.778C256.96 123.125 256.96 123.125 253.524 129.12C242.175 148.949 219.29 162.566 190.141 166.845C176.328 168.867 176.328 168.867 172.745 179.23C165.666 199.729 151.323 219.696 129.125 239.988C115.223 252.697 115.518 252.185 122.066 252.185Z" fill="#052651"/>
</g>
<defs>
<clipPath id="clip0_976_1080">
<rect width="323" height="705" fill="white"/>
</clipPath>
</defs>
</svg>
