<svg width="116" height="154" viewBox="0 0 116 154" fill="none" xmlns="http://www.w3.org/2000/svg">
<path d="M50.8189 92.8407C50.8189 86.2077 49.2225 83.9933 42.2184 80.9209C27.1384 74.3136 25.1609 73.2809 20.8468 69.7718C10.4676 61.3406 6.82741 48.8968 11.6165 38.2152C13.7598 33.437 13.7377 33.2418 10.4676 28.7821C4.09866 20.0992 0.646284 3.0827 5.25313 3.0827C6.99865 3.0827 6.98208 3.0416 8.78284 12.002C10.1141 18.6452 10.5173 19.7807 12.887 23.5827C16.588 29.522 16.7537 29.558 24.0119 25.9152C40.8485 17.4686 75.3612 17.4378 91.695 25.8536C98.9698 29.5991 99.2626 29.5425 102.947 23.8241C105.372 20.0684 105.775 18.9894 106.952 13.0347C108.88 3.3139 108.857 3.36528 110.586 3.17518C115.155 2.68195 112.354 17.9516 106.073 27.7443C102.212 33.771 102.306 32.7434 104.947 40.0751C106.935 45.6137 106.432 53.4283 103.72 58.9412C99.3344 67.8657 91.8773 73.6663 77.4326 79.3795C66.5838 83.6645 65.5509 84.7537 65.2857 92.1162C65.0814 97.8398 64.5897 99.1602 62.673 99.1602C60.4414 99.1602 59.9718 97.1924 60.6678 90.6725C61.5075 82.75 62.9602 80.7462 70.1522 77.5916C87.1876 70.1109 88.3476 69.4841 93.0925 65.0809C106.311 52.8324 104.267 36.9564 88.4857 29.2548C74.5768 22.4677 42.8039 22.4421 27.8952 29.2035C16.4057 34.4132 11.611 44.8995 15.7981 55.653C18.8638 63.5293 27.3373 70.1623 40.9203 75.3155C52.8903 79.8574 55.4423 83.0531 55.133 93.1181C54.9949 97.6959 54.7961 98.8108 54.0448 99.1962C53.5421 99.4582 52.8572 99.674 52.5258 99.674C52.1943 99.674 51.6751 99.042 51.3713 98.2662C51.0675 97.4955 50.8189 95.0499 50.8189 92.8407Z" fill="#053870"/>
<path d="M57.9999 112.593L44.2483 126.363C43.7338 126.878 43.0789 127.136 42.2838 127.136C41.4886 127.136 40.8338 126.878 40.3193 126.363C39.8047 125.848 39.5475 125.192 39.5475 124.396C39.5475 123.6 39.8047 122.944 40.3193 122.429L54.0708 108.659L40.3193 94.8892C39.8047 94.374 39.5475 93.7183 39.5475 92.9221C39.5475 92.1259 39.8047 91.4702 40.3193 90.955C40.8338 90.4398 41.4886 90.1822 42.2838 90.1822C43.0789 90.1822 43.7338 90.4398 44.2483 90.955L57.9999 104.725L71.7514 90.955C72.2659 90.4398 72.9208 90.1822 73.7159 90.1822C74.5111 90.1822 75.1659 90.4398 75.6804 90.955C76.195 91.4702 76.4522 92.1259 76.4522 92.9221C76.4522 93.7183 76.195 94.374 75.6804 94.8892L61.9289 108.659L75.6804 122.429C76.195 122.944 76.4522 123.6 76.4522 124.396C76.4522 125.192 76.195 125.848 75.6804 126.363C75.1659 126.878 74.5111 127.136 73.7159 127.136C72.9208 127.136 72.2659 126.878 71.7514 126.363L57.9999 112.593Z" fill="#053870"/>
</svg>
