<?xml version="1.0" encoding="UTF-8"?> <svg xmlns="http://www.w3.org/2000/svg" xmlns:xlink="http://www.w3.org/1999/xlink" version="1.1" id="Layer_1" x="0px" y="0px" viewBox="0 0 537.23 207.535" xml:space="preserve"> <g> <path fill="#414042" d="M263.855,130.659c0-4.868-1.349-13.521-10.037-18.649c3.674-3.918,5.75-9.44,5.75-15.427 c0-6.79-2.126-22.583-21.813-22.583H216.76c-0.694,0-1.258,0.563-1.258,1.258v76.946c0,0.694,0.563,1.258,1.258,1.258h20.995 C255.073,153.46,263.855,145.789,263.855,130.659z M236.655,107.856h-9.735V84.759h10.834c9.159,0,10.394,5.977,10.394,11.823 C248.149,104.063,244.282,107.856,236.655,107.856z M237.735,142.701h-10.814v-24.087h9.735c13.906,0,15.781,6.088,15.781,12.044 C252.436,136.756,251.311,142.265,237.735,142.701z"></path> <path fill="#414042" d="M305.016,74.911c-0.155-0.54-0.648-0.912-1.209-0.912h-9.783c-0.561,0-1.055,0.373-1.209,0.912 l-21.984,76.946c-0.108,0.38-0.032,0.787,0.206,1.103c0.237,0.315,0.609,0.5,1.004,0.5h9.014c0.57,0,1.068-0.383,1.215-0.934 l3.708-13.906h25.775l3.814,13.914c0.149,0.546,0.646,0.926,1.213,0.926h9.013c0.395,0,0.766-0.185,1.004-0.5 c0.238-0.316,0.313-0.723,0.206-1.103L305.016,74.911z M308.84,127.862h-19.959l9.979-34.552L308.84,127.862z"></path> <path fill="#414042" d="M382.494,152.848c0.227-0.381,0.237-0.852,0.027-1.242l-13.954-25.915 c8.822-3.855,13.116-11.921,13.116-24.603c0-17.975-8.782-27.09-26.1-27.09h-17.148c-0.694,0-1.258,0.563-1.258,1.258v76.946 c0,0.694,0.563,1.258,1.258,1.258h8.904c0.694,0,1.258-0.563,1.258-1.258v-24.135h8.546l13.384,24.734 c0.22,0.406,0.645,0.659,1.106,0.659h9.783C381.856,153.46,382.266,153.228,382.494,152.848z M348.595,84.759h6.987 c12.279,0,14.681,5.988,14.681,16.33c0,10.143-2.343,15.715-14.701,16.11h-6.967V84.759z"></path> <path fill="#414042" d="M420.005,109.146c-9.071-3.432-15.016-6.244-15.016-13.774c0-6.781,4.856-11.163,12.373-11.163 c7.197,0,11.493,4.337,11.493,11.604v3.518c0,0.694,0.563,1.258,1.258,1.258h8.904c0.694,0,1.258-0.563,1.258-1.258v-3.518 c0-8.306-4.826-22.363-22.912-22.363c-18.781,0-23.792,13.78-23.792,21.922c0,15.989,11.478,20.481,21.693,24.478 c7.555,2.897,14.692,5.633,14.692,13.335c0,3.76-1.508,10.065-11.603,10.065c-9.397,0-14.571-4.277-14.571-12.043v-3.627 c0-0.694-0.563-1.258-1.258-1.258h-8.794c-0.694,0-1.258,0.563-1.258,1.258v3.627c0,5.349,1.867,22.803,25.88,22.803 c14.416,0,23.022-7.785,23.022-20.825C441.373,117.366,430.024,113,420.005,109.146z"></path> <path fill="#414042" d="M453.309,153.46h35.834c0.694,0,1.258-0.563,1.258-1.258v-8.244c0-0.694-0.563-1.258-1.258-1.258H463.47 v-21.778h20.507c0.694,0,1.258-0.563,1.258-1.258v-8.244c0-0.694-0.563-1.258-1.258-1.258H463.47V84.759h24.904 c0.694,0,1.258-0.563,1.258-1.258v-8.245c0-0.694-0.563-1.258-1.258-1.258h-35.065c-0.694,0-1.258,0.563-1.258,1.258v76.946 C452.052,152.897,452.615,153.46,453.309,153.46z"></path> <path fill="#414042" d="M535.973,142.261h-24.135V75.256c0-0.694-0.563-1.258-1.258-1.258h-8.794c-0.694,0-1.258,0.563-1.258,1.258 v76.946c0,0.694,0.563,1.258,1.258,1.258h34.186c0.694,0,1.258-0.563,1.258-1.258v-8.684 C537.23,142.824,536.667,142.261,535.973,142.261z"></path> </g> <g> <path fill="#414042" d="M158.441,169.503c-0.11-0.386-0.462-0.65-0.864-0.65h-4.389c-0.402,0-0.754,0.265-0.864,0.65l-9.862,34.519 c-0.078,0.272-0.024,0.564,0.147,0.789c0.17,0.225,0.436,0.357,0.718,0.357h4.044c0.408,0,0.764-0.272,0.869-0.668l1.597-5.991 h11.051l1.642,5.998c0.107,0.39,0.462,0.66,0.867,0.66h4.044c0.282,0,0.547-0.132,0.718-0.357s0.224-0.516,0.147-0.789 L158.441,169.503z M159.389,193.017h-8.064l4.032-13.961L159.389,193.017z"></path> <path fill="#414042" d="M204.608,168.852h-4.34c-0.387,0-0.73,0.246-0.853,0.613c-1.97,5.881-4.044,11.924-6.1,17.921 c-0.842,2.458-1.683,4.909-2.512,7.337l-8.571-25.261c-0.123-0.365-0.466-0.609-0.851-0.609h-4.34 c-0.496,0-0.899,0.401-0.899,0.898v34.519c0,0.497,0.403,0.898,0.899,0.898h3.995c0.496,0,0.899-0.401,0.899-0.898v-18.163 l6.188,18.448c0.122,0.367,0.465,0.613,0.852,0.613h3.599c0.385,0,0.726-0.244,0.851-0.607c2.04-5.968,4.231-12.446,6.338-18.685 v18.393c0,0.497,0.403,0.898,0.899,0.898h3.945c0.496,0,0.899-0.401,0.899-0.898V169.75 C205.507,169.253,205.104,168.852,204.608,168.852z"></path> <path fill="#414042" d="M233.025,186.167c1.537-1.796,2.401-4.228,2.401-6.851c0-3.147-0.986-10.465-10.12-10.465h-9.419 c-0.496,0-0.899,0.401-0.899,0.898v34.519c0,0.497,0.403,0.898,0.899,0.898h9.419c7.991,0,12.043-3.553,12.043-10.563 C237.348,190.986,235.788,187.973,233.025,186.167z M220.78,189.535h4.032c5.927,0,6.744,2.437,6.744,5.07 c0,2.662-0.472,4.881-6.266,5.068h-4.511V189.535z M224.812,184.04h-4.032v-9.693h4.525c3.805,0,4.328,2.388,4.328,4.969 C229.633,182.495,228.056,184.04,224.812,184.04z"></path> <path fill="#414042" d="M259.28,169.503c-0.11-0.386-0.462-0.65-0.864-0.65h-4.389c-0.402,0-0.754,0.265-0.864,0.65l-9.862,34.519 c-0.078,0.272-0.024,0.564,0.147,0.789s0.436,0.357,0.718,0.357h4.044c0.408,0,0.764-0.272,0.869-0.668l1.597-5.991h11.051 l1.642,5.998c0.107,0.39,0.462,0.66,0.867,0.66h4.044c0.282,0,0.547-0.132,0.718-0.357s0.224-0.516,0.147-0.789L259.28,169.503z M260.229,193.017h-8.064l4.032-13.961L260.229,193.017z"></path> <path fill="#414042" d="M287.815,184.64c-3.938-1.49-6.52-2.702-6.52-5.864c0-2.884,1.999-4.674,5.216-4.674 c4.351,0,4.821,3.408,4.821,4.871v1.577c0,0.497,0.403,0.898,0.899,0.898h3.995c0.496,0,0.899-0.401,0.899-0.898v-1.577 c0-3.585-2.218-10.366-10.614-10.366c-8.69,0-11.008,6.391-11.008,10.17c0,7.399,5.263,9.459,9.946,11.293 c3.966,1.52,6.375,2.661,6.375,5.669c0,1.908-0.845,4.183-4.87,4.183c-5.125,0-6.201-2.757-6.201-5.07v-1.628 c0-0.497-0.403-0.898-0.899-0.898h-3.945c-0.496,0-0.899,0.401-0.899,0.898v1.628c0,5.107,3.138,10.563,11.945,10.563 c9.894,0,10.663-7.407,10.663-9.676C297.618,188.412,292.413,186.41,287.815,184.64z"></path> <path fill="#414042" d="M317.982,184.64c-3.938-1.49-6.52-2.702-6.52-5.864c0-2.884,1.999-4.674,5.216-4.674 c4.351,0,4.821,3.408,4.821,4.871v1.577c0,0.497,0.403,0.898,0.899,0.898h3.995c0.496,0,0.899-0.401,0.899-0.898v-1.577 c0-3.585-2.218-10.366-10.614-10.366c-8.69,0-11.008,6.391-11.008,10.17c0,7.399,5.263,9.459,9.946,11.293 c3.966,1.52,6.375,2.661,6.375,5.669c0,1.908-0.845,4.183-4.87,4.183c-5.125,0-6.201-2.757-6.201-5.07v-1.628 c0-0.497-0.403-0.898-0.899-0.898h-3.945c-0.496,0-0.899,0.401-0.899,0.898v1.628c0,5.107,3.138,10.563,11.945,10.563 c9.894,0,10.663-7.407,10.663-9.676C327.784,188.412,322.579,186.41,317.982,184.64z"></path> <path fill="#414042" d="M349.617,169.503c-0.11-0.386-0.462-0.65-0.864-0.65h-4.389c-0.402,0-0.754,0.265-0.864,0.65l-9.862,34.519 c-0.078,0.272-0.024,0.564,0.147,0.789s0.436,0.357,0.718,0.357h4.044c0.408,0,0.764-0.272,0.869-0.668l1.597-5.991h11.051 l1.642,5.998c0.107,0.39,0.462,0.66,0.867,0.66h4.044c0.282,0,0.547-0.132,0.718-0.357c0.17-0.225,0.224-0.516,0.147-0.789 L349.617,169.503z M350.565,193.017h-8.064l4.032-13.961L350.565,193.017z"></path> <path fill="#414042" d="M377.834,168.852h-9.616c-0.496,0-0.899,0.401-0.899,0.898v34.519c0,0.497,0.403,0.898,0.899,0.898h9.616 c10.585,0,12.043-8.727,12.043-18.157C389.878,177.579,388.419,168.852,377.834,168.852z M373.111,174.347h4.723 c5.284,0,6.251,4.266,6.251,12.664c0,8.445-0.94,12.494-6.251,12.662c-0.941,0-1.882,0.011-2.822,0.025 c-0.633,0.008-1.267,0.015-1.9,0.021V174.347z"></path> <path fill="#414042" d="M419.766,167.723c0.113-0.276,0.08-0.592-0.087-0.84c-0.167-0.25-0.447-0.397-0.746-0.397h-4.093 c-0.366,0-0.695,0.221-0.832,0.56l-0.784,1.921c-1.013-0.24-2.124-0.361-3.316-0.361c-10.977,0-11.896,9.5-11.896,18.405 c0,5.854,0.418,10.451,2.407,13.706l-2.243,5.586c-0.112,0.276-0.078,0.592,0.089,0.838c0.167,0.248,0.446,0.395,0.745,0.395h4.142 c0.37,0,0.701-0.225,0.837-0.569l0.936-2.375c1.412,0.552,3.053,0.823,4.983,0.823c11.113,0,12.043-9.498,12.043-18.403 c0-5.939-0.471-11.885-3.784-15.358L419.766,167.723z M409.908,199.92c-1.141,0-2.089-0.187-2.872-0.567l8.396-20.882 c0.586,2.15,0.728,5.034,0.728,8.54C416.16,195.757,415.224,199.92,409.908,199.92z M409.908,174.101 c0.405,0,0.795,0.03,1.187,0.093l-7.157,17.754c-0.111-1.569-0.132-3.268-0.132-4.937 C403.805,177.908,404.653,174.101,409.908,174.101z"></path> <path fill="#414042" d="M446.067,192.532c3.82-1.836,5.755-5.595,5.755-11.193c0-8.286-4.052-12.488-12.043-12.488h-7.693 c-0.496,0-0.899,0.401-0.899,0.898v34.519c0,0.497,0.403,0.898,0.899,0.898h3.995c0.496,0,0.899-0.401,0.899-0.898v-10.493h3.299 l5.909,10.92c0.157,0.291,0.46,0.471,0.79,0.471h4.389c0.317,0,0.61-0.166,0.772-0.437c0.163-0.272,0.17-0.609,0.02-0.887 L446.067,192.532z M436.979,174.347h2.8c5.255,0,6.251,2.458,6.251,6.993c0,4.436-0.969,6.722-6.265,6.893h-2.785V174.347z"></path> <path fill="#414042" d="M477.883,199.673h-11.182v-9.101h8.865c0.496,0,0.899-0.401,0.899-0.898v-3.699 c0-0.497-0.403-0.898-0.899-0.898h-8.865v-10.729h10.837c0.496,0,0.899-0.401,0.899-0.898v-3.699c0-0.497-0.403-0.898-0.899-0.898 h-15.731c-0.496,0-0.899,0.401-0.899,0.898v34.519c0,0.497,0.403,0.898,0.899,0.898h16.076c0.496,0,0.899-0.401,0.899-0.898v-3.699 C478.782,200.074,478.379,199.673,477.883,199.673z"></path> <path fill="#414042" d="M508.789,168.852h-3.945c-0.496,0-0.899,0.401-0.899,0.898v21.746l-11.269-22.154 c-0.153-0.301-0.462-0.49-0.801-0.49h-3.896c-0.496,0-0.899,0.401-0.899,0.898v34.519c0,0.497,0.403,0.898,0.899,0.898h3.995 c0.496,0,0.899-0.401,0.899-0.898v-21.659l11.269,22.067c0.154,0.301,0.463,0.49,0.801,0.49h3.846c0.496,0,0.899-0.401,0.899-0.898 V169.75C509.688,169.253,509.285,168.852,508.789,168.852z"></path> <path fill="#414042" d="M536.193,199.673h-11.182v-9.101h8.865c0.496,0,0.899-0.401,0.899-0.898v-3.699 c0-0.497-0.403-0.898-0.899-0.898h-8.865v-10.729h10.837c0.496,0,0.899-0.401,0.899-0.898v-3.699c0-0.497-0.403-0.898-0.899-0.898 h-15.731c-0.496,0-0.899,0.401-0.899,0.898v34.519c0,0.497,0.403,0.898,0.899,0.898h16.076c0.496,0,0.899-0.401,0.899-0.898v-3.699 C537.092,200.074,536.689,199.673,536.193,199.673z"></path> </g> <path fill="#414042" d="M190.235,63.463c13.08-5.338,21.289-18.241,20.443-32.529c-0.891-15.054-12.302-27.691-27.135-30.408 c-13.161-2.411-25.923,3.573-34.031,15.532c-7.926,11.691-15.321,29.043-21.881,48.422c-7.534,0.828-15.064,1.283-22.209,1.26 h-0.107c-7.128,0.02-14.676-0.43-22.21-1.26c-6.56-19.379-13.955-36.731-21.881-48.422C53.115,4.098,40.351-1.886,27.189,0.528 c-14.832,2.72-26.24,15.357-27.13,30.409c-0.844,14.287,7.365,27.19,20.444,32.526c10.803,5.039,31.254,10.389,52.43,13.413 c15.304,48.178,25.597,106.549,25.632,117.206l0.23,5.103c0.011,3.744,2.833,6.773,6.576,6.773h0c3.746,0,6.585-3.033,6.592-6.779 l0.21-5.096c0.035-10.657,10.328-69.028,25.632-117.206C158.98,73.851,179.433,68.502,190.235,63.463z M160.766,23.69 c2.63-3.879,8.495-10.463,17.806-10.077c9.355,0.388,17.312,7.639,18.426,16.936c1.067,8.911-3.893,17.115-12.012,20.369 l-0.367,0.159c-7.532,3.547-22.578,7.854-39.561,10.88c-1.05,0.187-1.915-0.851-1.549-1.853 C148.858,45.484,154.67,32.681,160.766,23.69z M25.752,50.918c-8.119-3.254-13.078-11.457-12.012-20.367 c1.113-9.297,9.069-16.549,18.424-16.938c9.311-0.387,15.177,6.198,17.806,10.077c6.096,8.991,11.908,21.794,17.257,36.414 c0.366,1.001-0.499,2.04-1.549,1.853c-16.982-3.026-32.03-7.331-39.56-10.878L25.752,50.918z M104.443,145.421 c-4.198-20.376-9.94-44.343-16.813-66.852c6.098,0.524,12.082,0.793,17.738,0.768c5.653,0.02,11.639-0.244,17.738-0.768 c-6.872,22.509-12.615,46.476-16.813,66.852C106.087,146.427,104.651,146.427,104.443,145.421z"></path> </svg> 