<?xml version="1.0" encoding="utf-8"?>
<!-- Generator: Adobe Illustrator 16.0.3, SVG Export Plug-In . SVG Version: 6.00 Build 0)  -->
<!DOCTYPE svg PUBLIC "-//W3C//DTD SVG 1.1//EN" "http://www.w3.org/Graphics/SVG/1.1/DTD/svg11.dtd">
<svg version="1.1" id="Layer_1" xmlns="http://www.w3.org/2000/svg" xmlns:xlink="http://www.w3.org/1999/xlink" x="0px" y="0px"
	 width="776px" height="262px" viewBox="0 0 776 262" enable-background="new 0 0 776 262" xml:space="preserve">
<path fill="#69AFD7" d="M263.307,120.715c0.088-1.691,0.141-3.394,0.152-5.09c0.012-1.742-0.026-3.484-0.086-5.231
	c-0.956-23.851-9.51-47.191-24.177-65.301c-16.563-20.454-40.475-34.02-69.949-39.96c-7.93-1.603-16.379-2.688-25.085-3.161
	c-2.92-0.157-4.192-0.25-8.192-0.301v81.251c2,0.04,2.651,0.094,3.896,0.161c57.923,3.176,76.095,43.817,74.511,73.634
	c-1.055,19.906-8.408,34.371-21.027,47.299c-11.059,11.313-45.38,32.918-57.379,40.191v17.463c16-9.498,73.271-44.754,91.69-62.979
	C250.24,176.337,261.666,151.564,263.307,120.715z M198.128,159.521c0.686-12.924-3.352-25.9-11.201-35.603
	c-10.248-12.653-26.465-19.672-47.979-20.852c-1.016-0.051-0.978-0.09-2.978-0.122v49.083c30,1.936,29.242,25.574,29.102,28.273
	c-0.772,14.481-9.103,21.651-29.102,33.67v15.104C177.97,203.62,196.54,189.346,198.128,159.521z"/>
<path fill="#09476E" d="M361.146,11.879V251.82h-54.465V11.879H361.146z M584.352,245.053c-9.968,4.984-32.396,10.326-61.587,10.326
	c-82.943,0-125.665-51.619-125.665-119.97c0-81.877,58.387-127.445,131.005-127.445c28.125,0,49.482,5.695,59.099,10.68
	l-11.035,43.074c-11.035-4.628-26.345-8.898-45.565-8.898c-43.074,0-76.535,25.985-76.535,79.383
	c0,48.061,28.477,78.318,76.893,78.318c16.373,0,34.531-3.563,45.212-7.834L584.352,245.053z M621.735,195.928
	c14.597,7.479,37.021,14.951,60.156,14.951c24.922,0,38.097-10.322,38.097-25.986c0-14.951-11.396-23.496-40.229-33.814
	c-39.87-13.887-65.854-35.957-65.854-70.844c0-40.942,34.177-72.266,90.771-72.266c27.062,0,46.993,5.695,61.231,12.102
	l-12.104,43.789c-9.609-4.629-26.696-11.394-50.192-11.394c-23.497,0-34.891,10.68-34.891,23.141
	c0,15.309,13.529,22.071,44.499,33.821c42.364,15.66,62.304,37.735,62.304,71.558c0,40.225-30.975,74.398-96.831,74.398
	c-27.409,0-54.47-7.123-67.992-14.594L621.735,195.928z M0.63,120.715c-0.086-1.691-0.138-3.394-0.151-5.09
	c-0.012-1.742,0.026-3.484,0.086-5.231c0.956-23.851,9.508-47.191,24.175-65.301c16.563-20.454,40.475-34.02,69.952-39.96
	c7.927-1.603,16.378-2.688,25.084-3.161c2.918-0.157,4.194-0.25,8.193-0.301v81.251c-2,0.04-2.654,0.094-3.898,0.161
	C66.15,86.259,47.977,126.9,49.562,156.717c1.055,19.906,8.408,34.371,21.028,47.299c11.059,11.313,45.379,32.918,57.379,40.191
	v17.463c-16-9.498-73.273-44.754-91.692-62.979C13.696,176.337,2.271,151.564,0.63,120.715z M65.809,159.521
	c-0.684-12.924,3.352-25.9,11.201-35.603c10.25-12.653,26.467-19.672,47.981-20.852c1.016-0.051,0.978-0.09,2.978-0.122v49.083
	c-30,1.936-29.244,25.574-29.104,28.273c0.774,14.481,9.104,21.651,29.104,33.67v15.104
	C85.969,203.62,67.396,189.346,65.809,159.521z"/>
</svg>
