<?xml version="1.0" encoding="UTF-8"?>
<svg id="Layer_1" data-name="Layer 1" xmlns="http://www.w3.org/2000/svg" viewBox="0 0 95.68 20.59">
  <defs>
    <style>
      .cls-1 {
        fill: #fff;
      }
    </style>
  </defs>
  <rect class="cls-1" y=".06" width="3.38" height="20.46"/>
  <path class="cls-1" d="M10.87.06h3.06v11.71c0,2.09.47,3.7,1.4,4.8.99,1.13,2.45,1.74,3.96,1.66,1.55.1,3.07-.51,4.12-1.66.96-1.1,1.44-2.7,1.44-4.81V.06h3.06v11.51c0,2.88-.76,5.08-2.29,6.6-1.53,1.52-3.68,2.29-6.46,2.3-2.67,0-4.72-.75-6.15-2.24-1.42-1.49-2.13-3.67-2.13-6.54V.06"/>
  <path class="cls-1" d="M53.5,9.67v9.63c-2.34.77-4.78,1.16-7.24,1.17-3.84,0-6.79-.94-8.85-2.83-2.05-1.84-3.18-4.49-3.09-7.24-.07-2.89,1.2-5.66,3.45-7.48C40.05.97,43.09,0,46.89,0c2.01-.05,4.01.27,5.91.95l-.77,2.24c-1.67-.63-3.45-.93-5.24-.89-2.81-.01-5.05.71-6.72,2.17-1.66,1.44-2.58,3.56-2.5,5.75-.1,2.2.79,4.32,2.41,5.8,1.61,1.45,3.77,2.17,6.48,2.17,1.36.08,2.73-.12,4.02-.57v-5.75h-4.64v-2.21h7.67"/>
  <path class="cls-1" d="M71.39,14.07h-8.31l-2.4,6.31h-3.29L65.37.14h3.84l8.05,20.27h-3.38l-2.48-6.34ZM63.72,11.9h7.03c-2.04-5.08-3.25-8.21-3.61-9.39-.49,1.67-1.64,4.81-3.45,9.41"/>
  <path class="cls-1" d="M89.42,13.26c.29-.03.65-.07.65-.07,3.6-.55,6.08-3.91,5.54-7.51-.55-3.6-3.91-6.08-7.51-5.54-3.6.55-6.08,3.91-5.54,7.51.43,2.86,2.68,5.1,5.54,5.54,0,0,.34.04.65.07v3.07h-4.59v.67h4.59v3.58h.67v-3.58h4.59v-.67h-4.59v-3.07ZM87.33,12.47c-.15-.04-.29-.1-.43-.15-.04-.01-.08-.03-.12-.04-.15-.06-.29-.13-.43-.2-.03-.02-.07-.03-.1-.05-.13-.07-.26-.15-.39-.23-.04-.02-.07-.04-.11-.07-.12-.08-.23-.16-.34-.25-.05-.03-.09-.07-.14-.1-.1-.08-.18-.16-.27-.24-.05-.05-.11-.1-.17-.15-.07-.07-.14-.15-.21-.23-.06-.07-.13-.13-.19-.21,0,0,0,0,0,0,.43-.09.89-.16,1.36-.23.05,0,.09-.01.14-.02.04.08.08.16.12.24.42.89.97,1.59,1.61,2.01-.05-.01-.1-.02-.15-.04-.06-.02-.12-.03-.17-.04ZM83.95,9.88c-.06-.1-.12-.19-.18-.29-.04-.07-.07-.15-.11-.22-.05-.1-.1-.2-.15-.31-.04-.08-.06-.17-.1-.25-.04-.1-.08-.2-.11-.3-.03-.1-.06-.21-.08-.31-.02-.09-.05-.18-.07-.26-.02-.12-.04-.24-.06-.35-.01-.08-.03-.17-.04-.25,0-.08,0-.15-.01-.23,0-.09-.01-.18-.01-.28h2.2c.02,1.18.23,2.28.59,3.21-.1.01-.19.03-.28.04-.45.06-.88.14-1.29.22-.05-.07-.11-.14-.16-.21-.05-.07-.09-.14-.13-.21ZM83.15,5.49s.02-.08.03-.12c.03-.16.07-.31.12-.46.01-.04.03-.07.04-.11.05-.15.1-.3.16-.44.02-.04.03-.07.05-.11.06-.14.13-.28.2-.42.02-.04.05-.08.07-.11.07-.13.15-.26.24-.39.02-.04.05-.07.08-.11.04-.05.08-.1.11-.15.41.09.85.16,1.29.22.1.01.19.03.29.04-.36.94-.57,2.03-.59,3.21h-2.2c0-.15,0-.31.02-.46,0-.05.01-.09.02-.13.02-.16.04-.31.07-.47ZM87.31.9c.11-.03.23-.06.35-.09-.64.42-1.2,1.13-1.61,2.01-.04.08-.08.16-.12.24-.05,0-.09-.01-.14-.02-.47-.06-.92-.14-1.35-.23,0,0,.01-.01.02-.02.74-.87,1.71-1.54,2.83-1.89.01,0,.02,0,.03,0ZM89.08.64c.19,0,.42.42.62,1.18.1.39.2.87.27,1.44-.3.01-.59.02-.89.02s-.59-.01-.89-.02c.08-.57.17-1.04.27-1.44.2-.76.42-1.18.62-1.18h0ZM93.52,2.59c.07.07.13.14.2.22,0,0,0,0,0,.01-.43.09-.89.16-1.35.23-.05,0-.09.01-.14.02-.04-.09-.08-.16-.12-.24-.42-.88-.97-1.59-1.61-2.01.12.03.24.06.36.09.05.01.09.03.14.05.14.05.27.09.41.15.07.03.14.06.2.1.11.05.21.1.32.15.08.04.16.09.24.14.09.05.17.1.26.16.08.06.16.12.24.18.08.06.15.11.22.17.08.06.15.13.23.2.07.06.14.12.21.19.07.07.13.14.2.21ZM94.22,3.5c.06.09.11.18.16.27.04.08.08.17.12.25.05.09.09.18.13.28.04.09.07.19.11.29.03.09.07.17.1.27.03.11.06.22.09.34.02.08.05.16.06.24.03.12.04.24.06.36.01.08.03.16.04.24,0,.07,0,.15.01.22,0,.09.01.19.01.28h-2.2c-.02-1.18-.23-2.28-.59-3.21.1-.01.19-.03.29-.04.44-.06.88-.13,1.29-.22.05.07.11.14.16.21.05.07.1.15.14.23ZM95.01,7.88s-.02.07-.03.11c-.04.16-.07.32-.12.47-.01.04-.03.07-.04.11-.05.15-.1.3-.16.45-.02.04-.04.08-.05.12-.06.14-.13.28-.2.41-.02.04-.05.09-.08.13-.07.13-.15.25-.23.37-.03.04-.06.08-.09.13-.03.05-.07.09-.1.13-.41-.09-.85-.16-1.29-.22-.1-.01-.19-.03-.29-.04.36-.94.57-2.03.59-3.21h2.2c0,.15,0,.31-.02.46,0,.04-.01.08-.02.11-.02.16-.04.33-.07.48ZM90.5,12.55c.64-.42,1.2-1.13,1.61-2.01.04-.08.08-.16.12-.24.05,0,.09.01.14.02.47.06.92.14,1.35.23-.01.01-.02.02-.03.04-.73.87-1.71,1.53-2.82,1.87-.03,0-.05.01-.08.02-.1.03-.2.05-.3.08ZM90.18,6.82c0,1.16-.07,2.17-.17,3.02-.31-.01-.61-.02-.92-.02s-.62.01-.92.02c-.1-.85-.17-1.86-.17-3.02h2.2ZM87.98,6.54c0-1.16.07-2.17.17-3.02.31.01.61.02.92.02s.62-.01.92-.02c.1.85.17,1.86.17,3.02h-2.2ZM89.08,10.09c.3,0,.59.01.89.02-.08.57-.17,1.05-.27,1.44-.19.75-.42,1.17-.61,1.17,0,0,0,0-.01,0-.19,0-.41-.43-.61-1.17-.1-.39-.2-.87-.27-1.44.3-.01.59-.02.89-.02ZM90,11.5c.1-.4.19-.87.25-1.38.58.03,1.15.08,1.7.14-.09.21-.2.41-.31.6-.55.96-1.28,1.62-2.09,1.8.17-.26.32-.66.44-1.16ZM90.45,6.82h2.2c-.02,1.17-.23,2.26-.58,3.18-.58-.07-1.17-.12-1.78-.15.11-.93.17-1.98.17-3.03ZM90.28,3.52c.61-.03,1.2-.08,1.78-.15.36.92.57,2.01.58,3.18h-2.2c0-1.05-.06-2.1-.17-3.03ZM91.65,2.5c.11.19.21.39.3.6-.55.06-1.12.11-1.7.14-.07-.51-.15-.98-.25-1.38-.12-.5-.27-.9-.44-1.16.82.18,1.55.84,2.09,1.8ZM88.16,1.86c-.1.4-.19.87-.25,1.38-.58-.03-1.15-.08-1.7-.14.09-.21.2-.41.31-.6.55-.96,1.28-1.62,2.1-1.8-.17.26-.32.66-.44,1.16ZM87.71,6.54h-2.2c.02-1.17.23-2.26.59-3.18.58.07,1.17.12,1.78.15-.11.93-.17,1.98-.17,3.03ZM87.88,9.84c-.61.03-1.2.08-1.78.15-.36-.92-.57-2.01-.59-3.18h2.2c0,1.05.06,2.1.17,3.03ZM86.51,10.86c-.11-.19-.21-.39-.3-.6.55-.06,1.12-.11,1.7-.14.07.51.15.98.25,1.38.12.5.27.9.44,1.16-.82-.19-1.55-.85-2.1-1.81Z"/>
</svg>