<?xml version="1.0" encoding="utf-8"?>
<!-- Generator: Adobe Illustrator 26.0.2, SVG Export Plug-In . SVG Version: 6.00 Build 0)  -->
<svg version="1.1" id="Layer_1" xmlns="http://www.w3.org/2000/svg" xmlns:xlink="http://www.w3.org/1999/xlink" x="0px" y="0px"
	 viewBox="0 0 798 217" style="enable-background:new 0 0 798 217;" xml:space="preserve">
<style type="text/css">
	.st0{fill:#441CBC;}
</style>
<g>
	<g>
		<path class="st0" d="M236.1,91.3c-1.5-47.8-67-60.2-86.4-16.5l-22,49.7c-1.1,2.6-3.7,4.1-6.3,4.1c-0.2,0-0.3,0-0.5,0
			c-0.2,0-0.3,0-0.5,0c-2.7,0-5.2-1.5-6.3-4.1l-22-49.7c-19.5-44-85.1-31-86.4,17.1c0,0.7,0,1.3,0,2
			c-0.6,63.1,50.4,115.5,113.6,116.3c64.4,0.9,116.8-51,116.8-115.2C236.2,93.8,236.2,92.6,236.1,91.3z"/>
		<path class="st0" d="M126.8,59.1l11.7-26.4c5.6-12.6-3.5-26.8-17.3-26.9c-0.1,0-0.2,0-0.3,0c-0.1,0-0.2,0-0.3,0
			C107,5.9,97.9,20.2,103.4,32.7l11.7,26.4C117.4,64.2,124.6,64.2,126.8,59.1z"/>
	</g>
	<g>
		<path class="st0" d="M335,81.9h11.1l-27.4,94.6h-11.2l-27.5-94.6h11.7l21.6,77.2L335,81.9z"/>
		<path class="st0" d="M412.5,81.9h10.9v65.8c0,9.2-2.9,16.6-8.5,22s-13,8.2-22,8.2c-9.1,0-16.4-2.7-22-8.2
			c-5.6-5.5-8.4-12.8-8.4-22V81.9h10.9V148c0,12,7.3,20,19.4,20c12.2,0,19.6-8.1,19.6-20V81.9z"/>
		<path class="st0" d="M558,81.9h11.1l-27.4,94.6h-11.2L503,81.9h11.7l21.6,77.2L558,81.9z"/>
		<polygon class="st0" points="459.4,166.6 459.4,81.9 448.5,81.9 448.5,176.6 500.2,176.6 497.4,166.6 		"/>
		<path class="st0" d="M614.7,81.9h-11.1l-30.3,94.6h10.8l6.8-21.8l0.7-2.5c2.6,0.1,5.4-0.2,8.4-0.9l13.8-3.1
			c5.7-1.2,9.1-0.7,11.8,2.2l1.2,4.3l6.9,21.8h11.4L614.7,81.9z M609.3,139l-12.2,2.7c-0.8,0.2-1.5,0.3-2.2,0.4l14-45.4l13,41
			C618.2,137.5,614,138,609.3,139z"/>
		<path class="st0" d="M792.8,147.4c0,9.2-2.9,16.6-8.6,22c-5.6,5.5-13.1,8.2-22.5,8.2s-16.8-2.7-22.6-8.2c-5.6-5.5-8.5-12.8-8.5-22
			v-37c0-18.6,12.1-30.2,31.1-30.2c9.4,0,16.8,2.7,22.5,8.2c5.8,5.5,8.6,12.8,8.6,22V147.4z M741.6,147.7c0,12,7.6,20,20.2,20
			s20-8.1,20-20v-37.6c0-12-7.5-20-20-20s-20.2,8.1-20.2,20V147.7z"/>
		<path class="st0" d="M705.4,81.6v72l-40.3-72h-9.8v72.5c1.7-0.5,3.4-0.7,5.2-0.7c1.7,0,3.4,0.3,5,0.7v-51l41,73.1h9.1V81.6H705.4z
			"/>
		<path class="st0" d="M667.8,170.4c0,4-3.3,7.2-7.3,7.2s-7.2-3.2-7.2-7.2C652.7,160.9,668.3,160.9,667.8,170.4z"/>
	</g>
</g>
</svg>
